<svg xmlns="http://www.w3.org/2000/svg" width="24" height="23.4" viewBox="0 0 24 23.4">
  <g id="Adobe_Premiere_Pro" data-name="Adobe Premiere Pro" transform="translate(27.692 27)">
    <g id="Layer_2" data-name="Layer 2" transform="translate(-27.692 -27)">
      <g id="Surfaces">
        <g id="Video_Audio_Surface" data-name="Video Audio Surface">
          <g id="Outline_no_shadow" data-name="Outline no shadow">
            <rect id="Rectangle_223782" data-name="Rectangle 223782" width="24" height="23.4" rx="4" fill="#00005b"/>
          </g>
        </g>
      </g>
      <g id="Outlined_Mnemonics_Logos" data-name="Outlined Mnemonics Logos" transform="translate(5.635 5.916)">
        <g id="Pr">
          <path id="Path_358453" data-name="Path 358453" d="M13.163,24.3V13.918c0-.076.033-.114.1-.114.173,0,.331,0,.57-.008l.772-.016.877-.016q.463-.008.918-.008a6.108,6.108,0,0,1,2.079.309,3.608,3.608,0,0,1,1.356.829,3.179,3.179,0,0,1,.739,1.145,3.812,3.812,0,0,1,.227,1.308,3.608,3.608,0,0,1-.6,2.145,3.394,3.394,0,0,1-1.624,1.226,6.476,6.476,0,0,1-2.274.341q-.357,0-.5-.008c-.1-.005-.244-.008-.439-.008v3.241a.129.129,0,0,1-.146.146H13.277C13.2,24.427,13.163,24.384,13.163,24.3Zm2.194-8.544v3.386q.211.016.39.016h.536a3.813,3.813,0,0,0,1.162-.185,1.758,1.758,0,0,0,.829-.536,1.561,1.561,0,0,0,.317-1.04,1.64,1.64,0,0,0-.236-.894,1.517,1.517,0,0,0-.707-.577,3.018,3.018,0,0,0-1.186-.2q-.39,0-.69.008t-.414.024Z" transform="translate(-13.163 -13.755)" fill="#99f"/>
          <path id="Path_358454" data-name="Path 358454" d="M33.683,19.431h1.771a.221.221,0,0,1,.211.163,1.052,1.052,0,0,1,.061.248,2.675,2.675,0,0,1,.049.317c.01.114.016.236.016.366a3.8,3.8,0,0,1,1.08-.869A3.17,3.17,0,0,1,38.4,19.26a.13.13,0,0,1,.146.11.126.126,0,0,1,0,.036v1.966q0,.113-.163.114a4.2,4.2,0,0,0-1.093.1,3.973,3.973,0,0,0-.845.268,1.587,1.587,0,0,0-.519.373v5.149q0,.146-.13.146H33.808a.143.143,0,0,1-.162-.122.127.127,0,0,1,0-.041V21.775q0-.357-.008-.756t-.024-.788a6,6,0,0,0-.045-.686.094.094,0,0,1,.114-.114Z" transform="translate(-24.646 -16.853)" fill="#99f"/>
        </g>
      </g>
    </g>
  </g>
</svg>
